<svg height="391.867799" viewBox="0 0 323.44409 495.78625" width="255.188103" xmlns="http://www.w3.org/2000/svg" xmlns:xlink="http://www.w3.org/1999/xlink"><clipPath id="a"><path d="m0 841.89h595.28v-841.89h-595.28z"/></clipPath><g clip-path="url(#a)" transform="matrix(.6594928 0 0 -.6594928 -36.455504 526.19566)"><path d="m0 0c-.35-1.37-1.26-2.54-2.29-3.51-4.11-3.86-8.37-4.56-13.84-3.83-16.23 2.19-26.86 16.55-36.43 28.38-.11.14-1.83 2.09-1.76 2.19l3.23 4.5c6.42-7.68 13.64-15.19 21.79-21.04 2.71-1.95 6.12-4.36 9.5-4.81 1.79-.24 3.2.61 4.6 1.6 1.74 1.23 2.76 3.07 4.83 4.03 2.36 1.09 4.57.36 6.45-1.26 2-1.72 4.71-3.15 3.92-6.25m-39.87-2.54c-1.88.07-2.92 1.65-4.4 2.56-1.23.76-2.58 1.31-3.99 1.59-.21.05-3.97.4-3.94.06.2-2.37.02-4.84-1.01-7.01-2.98-6.24-12.22-7.14-18.1-5.67-3.74.94-7.21 2.75-10.39 4.89-6.8 4.59-12.8 10.46-15.75 18.25-2.18 5.77-3.04 12-3.1 18.15-.03 2.07.04 4.15.22 6.21.02.24.02 2.25.26 2.37 5.25 2.56 9.56.93 9.56.93s5.5-12.5 18.25-22.5 31.56-12.81 31.56-12.81l4.63-4.44c-.76-1.49-2.06-2.64-3.8-2.58m-72.01 41.46c-2.75.31-5.02 1.76-4.82 4.81.5 7.5 10.13 7.75 10.13 7.75s25.38 2.13 43.8-14.04l.02-.02-3.57-5.81s-9.26 6.48-10.23 7.02c-6.19 3.46-12.47 4.78-19.65 3.54-5.31-.92-10.13-3.87-15.68-3.25m55.24-16.42-5.58-9.43-9.19 5.85 5.38 9.27zm4.71 7.96-3.91-6.62-9.4 5.71 4 6.9zm-7.52 11.31c3.34 10.94 10.25 15.29 10.25 15.29l9.25-5.49c-.51-8.17-6.69-15.3-9.61-18.24-.93-.94-1.53-1.45-1.53-1.45l-9.35 5.94c.27 1.4.61 2.72.99 3.95m21.97 35.63 9.28-5.75c-.58-8.75-10.67-18.34-10.67-18.34l-9.41 5.59c.58 11.75 10.8 18.5 10.8 18.5m17.11 20c11.09-5.42-5.58-23-6.66-23.84l-9.92 5.92s5.5 23.33 16.58 17.92m11.92-83.42c-2.75.25-7.5-2.38-11-6.19 0 0-3.25-1.31-16.5 11.69 0 0-3.8 4.39-9.68 10.13 8.55 5.48 11.43 19.87 11.43 19.87 10.31 8.91 11.4 18.91 11.49 20.13-.07-.04-.07-.01.01.12 0 0 0-.04-.01-.12 1.19.73 22.76 24.55 5.26 32.87-17.88 8.5-24.5-21-24.5-21-12-10-11.75-20.5-11.75-20.5-7.2-6.37-9.8-11.71-10.47-15.68-5.41 3.82-11.08 7.09-16.53 8.93-20.75 7-34.25 1.5-34.25 1.5s-8.5-3.5-8-13.5 14.5-9 16.75-8.25c0 0-3.63-23.81 14.85-40.43-13.83-23.6-114.21-194.28-198.35-324.47-25.69-43.79-38.75-67.85-64.42-114.36l6.17-4.32s32.2 43.23 76.83 106c63.64 89.49 145.36 223.01 196.83 327.32 23.59-7.4 46.84 7.01 46.84 7.01s17.75-9 28.25 1.25c0 0 4.5 2.25 4.5 10s-11 11.75-13.75 12" fill="#12175e" transform="matrix(1.0650241 0 0 1.0650241 540.07718 524.94557)"/><path d="m0 0c.5-1.65.74-3.37.9-5.08-16.94 9.94-12.5 35.15-12.5 35.15 7.69-18.78 18.75-21.71 18.75-21.71s-2.87 0-6.62-.19c-1.08-.06-2.01-.58-2.32-1.65-.69-2.43 1.14-4.33 1.79-6.52" fill="#12175e" transform="matrix(1.0650241 0 0 1.0650241 450.3063 533.1995)"/><path d="m0 0c-.578-.191-1.216-.127-1.73.199-1.542.979-4.829 3.489-4.683 8.657.009.311.133.611.349.836.468.49 1.484 1.393 3.362 2.493 1.246.733 2.931 1.568 5.207 2.457 1.86.727 3.996.151 5.232-1.418 1.269-1.615 2.44-3.459 2.735-6.588.048-.503-.142-.998-.485-1.37-1.347-1.462-3.244-2.927-4.987-3.62-1.619-.645-3.343-1.098-5-1.646m-4.492-2.225c-1.89-.5-3.83-.91-5.81-1.24-2.67-.46-5.4-.78-8.09-1.02-11.74-1.07-22.74 5.09-30.45 15.21-1.28 1.67-2.47 3.46-3.55 5.33-5.74.14-10.33 4.81-10.33 10.58 0 3.21 1.42 6.08 3.68 8.01-.26 1.56-.47 3.14-.6 4.74 0 .57 0 1.12.02 1.67.24 14.49 3.72 23.96 10.91 30.62.59.55 1.2 1.08 1.84 1.59.01-.01.01-.01.01 0 .72.56 1.46 1.1 2.23 1.63.42-.52.86-.99 1.32-1.4.81-.75 1.67-1.34 2.6-1.78-.32-.32-.64-.65-.96-.99-.38-.41-.76-.82-1.11-1.25-1.73-1.99-3.25-4.17-4.53-6.5-3.18-5.72-5-12.35-5-19.42 0-.22 0-.45.01-.67.03-1.93.2-3.83.49-5.68.2-.01.4-.02.6-.04.15-.01.3-.02.45-.05.18-.02.35-.04.52-.08.06-.01.11-.02.17-.03.03 0 .06-.01.09-.02.04 0 .09-.02.13-.03.1-.01.2-.04.3-.07.11-.03.21-.05.31-.08.17-.05.34-.1.51-.16.09-.03.19-.06.28-.09.06-.03.12-.05.18-.07.32-.13.62-.26.92-.41.16-.09.33-.17.48-.27.34-.19.66-.4.98-.63l.39-.3c.07-.06.15-.12.22-.19.13-.1.25-.21.37-.33.13-.11.25-.23.36-.35.19-.19.37-.39.54-.6.04-.03.07-.07.1-.11v-.01c.11-.14.22-.28.32-.42.07-.09.14-.19.19-.28.17-.23.32-.47.45-.71.14-.24.27-.48.38-.73.04-.09.08-.17.12-.26.02-.03.03-.07.04-.1.06-.12.1-.23.14-.35.04-.1.08-.21.12-.32.03-.1.07-.2.1-.31.14-.43.25-.87.32-1.32v-.01s0-.01.01-.01c.03-.14.05-.28.06-.43.02-.15.04-.3.06-.44.02-.32.04-.64.04-.96 0-2.2-.67-4.25-1.83-5.95 1.21-1.49 2.5-2.93 3.86-4.3 5.82-5.88 12.84-10.33 21.01-10.87.16-.01.32-.02.47-.02 2.14-.09 4.15.21 6.07.84 1.24.4 2.43.93 3.58 1.58.13-3.59 3.5-7.44 5.76-9.61-.61-.19-1.23-.37-1.85-.53m-47.9 97.86c0 4 3.25 7.25 7.25 7.25 3.41 0 6.28-2.37 7.04-5.55.14-.54.21-1.11.21-1.7 0-.44-.04-.86-.12-1.27-.03-.01-.06-.02-.09-.03-1.57-.56-3.05-1.35-4.39-2.32-.38-.27-.75-.55-1.1-.86-.79-.65-1.52-1.38-2.17-2.16-1.17.08-2.27.39-3.21.9-.02.02-.05.03-.07.04-2.02 1.12-3.35 3.14-3.35 5.7m17.55-3.59c.47-.07.94-.17 1.39-.29 1.93-.52 3.66-1.49 4.8-2.85.89-1.06 1.43-2.36 1.43-3.86 0-.05 0-.09-.01-.14-.02-1-.4-1.9-.98-2.7-.49-.67-1.13-1.28-1.85-1.8-2.23-1.63-5.2-2.52-6.74-2.52-.85 0-1.67.02-2.45.09-1.79.15-3.37.54-4.5 1.44-.67.54-1.19 1.25-1.51 2.2-.2.58-.32 1.25-.36 2.02-.01.19-.02.38-.02.58 0 1.85.68 3.52 1.82 4.85.04.05.09.1.14.15.67.77 1.51 1.42 2.46 1.91.68.36 1.42.63 2.2.81.72.17 1.46.26 2.22.26.66 0 1.32-.05 1.96-.15m-11-50.43c-.09.9-.13 1.79-.13 2.69 0 3.26.37 6.45 1.1 9.48.77 3.14 1.92 6.12 3.44 8.82 2.06-8.77 5.81-19.01 12.41-31.22 3.81-7.05 8.37-13.87 13.11-20.07-2.39-.25-4.83.04-7.24.76-4.93 1.5-9.72 4.85-13.62 9.3.57 1.65.88 3.42.88 5.26 0 6.74-4.1 12.52-9.95 14.98m19.6 34.27.27-.33c.37-.46.75-.92 1.12-1.4l.42-.54c5.39-6.89 10.95-15.18 15.88-24.28 5.93-10.96 9.71-20.88 12.25-29.77.12-.43.24-2.135.36-2.555-.42-.39-2.133-.496-2.533-.666-2.29-.94-4.405-1.29-5.125-1.15-1.25.24-.792 4.611-.792 4.611s-3.42-5.84-5.55-4.55c-1.32.8-2.62 2.13-1.2 8.38 1.29 5.71.83 6.83.83 6.83s-1.6-5.87-6.23-4.91c-5.16 1.06-.22 18.58-.01 19.31-.22-.49-4.09-8.78-6.71-7.65-4.3 1.85-2.5 7.67-2.13 10.42.36 2.66 2.29 9.39 2.41 9.81-.25-.49-4.98-9.48-7.66-6.43-2.75 3.12 2.5 18 2.5 18-3.58-6.05-6.08-5.46-6.08-5.46-1.6-.18-1.97 2.93-1.96 5.88 0 .15 0 .31.01.46 0 .28 0 .57.02.84.51.01 1.03.04 1.57.12.25.02.51.06.77.11 3.81.69 5.65 2.22 7.19 4.37.13.18.26.36.38.55m50.98-53.13c6-1.74 4-11.53 4-11.53s-.34-4.03-5.28-3.84c-2.21.09-3.34.86-3.91 1.7.836 1.266 1.642 2.616 2.422 4.062.31.576-.391 1.165-.907.763-2.217-1.729-5.146-3.459-8.865-5.715l-.24-.15c-.26 2.81-1.21 6.67-4.35 8.47 0 0 11.13 8 17.13 6.24m200.29-360.12-210.05 340.63c.21.21.41.43.61.65 3.87-1.76 15.73-6.2 18.65 4.22 3.5 12.5-4.38 18.62-4.38 18.62-8.14 4.92-17.37-.48-21.36-3.39-.22.7-.44 1.41-.67 2.12-.18.57-.37 1.16-.57 1.74-2.44 7.3-5.76 15.23-10.4 23.79-5.17 9.55-11.04 18.2-16.67 25.28-.14.18-.27.35-.41.52-.29.36-.57.71-.85 1.05.23.47.43.96.59 1.46.4 1.25.06 1.89-.29 2.66.09.58.13 1.17.13 1.77 0 .16 0 .32-.01.48 0 .04 0 .08-.01.12-.08 2.16-.63 4.23-1.6 6.07-1.96 3.73-5.61 6.5-10.47 7.11-.67 6.12-5.39 10.85-12.79 10.85-6.83 0-12.37-5.54-12.37-12.38 0-4.78 2.71-8.93 6.68-10.99-.2-.91-.31-1.83-.31-2.76 0-1.69.36-3.23 1-4.61-9.97-8.78-15.12-21.45-15.12-38.05 0-1.24.05-2.47.15-3.7-1.83-2.63-2.9-5.82-2.9-9.26 0-7.45 5.02-13.74 11.87-15.65 9.48-14.11 25.1-23.55 40.77-20.96 3.52.58 6.78 1.22 9.81 1.99 1.9.48 3.72 1.01 5.45 1.62.26.09.52.18.77.28l30.58-58.61 42.61-64.17c11.32-39.92 78.33-144.37 133.39-223.67l74-101.16 6.17 4.32z" fill="#12175e" transform="matrix(1.0650241 0 0 1.0650241 128.11722 529.30641)"/><path d="m0 0c-14.77.99-25.07 2.69-32.25 4.52 8.31-8.66 16.07-21.17 22.11-39.09 0 0-56.19-19.76-79.61 55.57 0 0 13.13 4.49 29.45.31-25.23 23.56-32.95 64.19-32.95 64.19 10.93-.38 21.05-3.65 30.28-8.71-17.39 23.39-13.28 55.46-13.28 55.46 7.86-3.41 15.07-7.58 21.64-12.25-19.88 25.72-23.64 65.75-23.64 65.75 50.25-31.25 75.5-85.75 75.5-85.75-13.15-2.53-24.05-.68-33.08 3.91 28.35-28.93 39.83-63.91 39.83-63.91-16.31 2.78-28.05 7-36.32 11.14 20.77-23.77 32.32-51.14 32.32-51.14" fill="#12175e" transform="matrix(1.0650241 0 0 1.0650241 170.03455 278.10492)"/><path d="m0 0c-8.42 1.95-45.33-9.55-65.5 48.12 24.18 3.18 47.12-7.87 64.24-45.3-.56.24-1.18.52-1.85.83-1.09.5-2.31 1.08-3.63 1.73-1.33.65-2.75 1.39-4.25 2.17-1.48.82-4.91 2.71-5.04 2.78-.41 1.88-1.92 6.5-7.14 10.74 0 0 3.8-6.14 3.23-8.43-.21.13-.41.25-.62.38-1.68.99-3.32 2.08-4.98 3.14-1.67 1.06-3.27 2.21-4.88 3.3-.03.02-.06.04-.09.06-.16 1.38-.77 5.37-2.53 7.93 0 0 1.42-5.09.74-6.66-.94.68-1.85 1.36-2.75 2.01-1.5 1.09-2.88 2.23-4.23 3.26-1.07.82-2.07 1.65-3 2.43.09.95.21 3.33-.51 4.71l-.37-3.97c-1.07.91-2.08 1.7-2.91 2.48-.9.8-1.68 1.51-2.32 2.09-.86.76-1.48 1.32-1.79 1.6.31-.3.91-.87 1.73-1.67.62-.6 1.38-1.32 2.25-2.16s1.91-1.72 3.01-2.72c0 0-3.33.14-4.15.34.39-.13 3.66-1.19 5.02-1.11.85-.77 1.76-1.57 2.75-2.37 1.31-1.08 2.67-2.27 4.13-3.41.88-.68 1.77-1.38 2.68-2.08-.6-.47-2.24-1.26-5.85-.02 0 0 3.16-2.26 7.58-1.3.04-.03.09-.07.13-.1 1.58-1.14 3.15-2.35 4.8-3.47 1.63-1.12 3.25-2.27 4.9-3.32.17-.11.34-.22.5-.33-1.81-1.31-5.69-1.64-9.69-.07.81-.4 8.81-4.18 13.74-2.48.1-.07 3.45-2.06 4.92-2.92 1.49-.84 2.9-1.63 4.22-2.33 1.31-.7 2.53-1.33 3.62-1.87 1.08-.55 2.05-.99 2.83-1.37.36-.16.69-.31.97-.43z" fill="#00a86b" transform="matrix(1.0650241 0 0 1.0650241 152.46165 245.14243)"/><path d="m0 0c-8.42 1.95-45.33-9.55-65.5 48.12 24.18 3.18 47.12-7.87 64.24-45.3-.56.24-1.18.52-1.85.83-1.09.5-2.31 1.08-3.63 1.73-1.33.65-2.75 1.39-4.25 2.17-1.48.82-4.91 2.71-5.04 2.78-.41 1.88-1.92 6.5-7.14 10.74 0 0 3.8-6.14 3.23-8.43-.21.13-.41.25-.62.38-1.68.99-3.32 2.08-4.98 3.14-1.67 1.06-3.27 2.21-4.88 3.3-.03.02-.06.04-.09.06-.16 1.38-.77 5.37-2.53 7.93 0 0 1.42-5.09.74-6.66-.94.68-1.85 1.36-2.75 2.01-1.5 1.09-2.88 2.23-4.23 3.26-1.07.82-2.07 1.65-3 2.43.09.95.21 3.33-.51 4.71l-.37-3.97c-1.07.91-2.08 1.7-2.91 2.48-.9.8-1.68 1.51-2.32 2.09-.86.76-1.48 1.32-1.79 1.6.31-.3.91-.87 1.73-1.67.62-.6 1.38-1.32 2.25-2.16s1.91-1.72 3.01-2.72c0 0-3.33.14-4.15.34.39-.13 3.66-1.19 5.02-1.11.85-.77 1.76-1.57 2.75-2.37 1.31-1.08 2.67-2.27 4.13-3.41.88-.68 1.77-1.38 2.68-2.08-.6-.47-2.24-1.26-5.85-.02 0 0 3.16-2.26 7.58-1.3.04-.03.09-.07.13-.1 1.58-1.14 3.15-2.35 4.8-3.47 1.63-1.12 3.25-2.27 4.9-3.32.17-.11.34-.22.5-.33-1.81-1.31-5.69-1.64-9.69-.07.81-.4 8.81-4.18 13.74-2.48.1-.07 3.45-2.06 4.92-2.92 1.49-.84 2.9-1.63 4.22-2.33 1.31-.7 2.53-1.33 3.62-1.87 1.08-.55 2.05-.99 2.83-1.37.36-.16.69-.31.97-.43z" fill="none" stroke="#12175e" stroke-miterlimit="10" stroke-width=".25" transform="matrix(1.0650241 0 0 1.0650241 152.46165 245.14243)"/><path d="m0 0c5.48-4.2 11.11-7.77 16.64-10.13-28.06.33-58.76 18.83-73.75 71.88 40.22-5.93 64.26-50.05 74.82-70.46-3.38 1.18-8.99 3.84-16.93 9.81-.1 1.89-.79 6.61-5.07 11.16.11-.34 2.11-6.27 1.64-8.5-2.78 2.23-5.8 4.83-9.08 7.87-.11 2.05-.83 7.8-5.52 14.79.12-.45 2.48-8.71 1.74-11.2-3.92 3.81-8.18 8.22-12.76 13.3.3 1.32.58 5.27-4.07 12.14.1-.42 1.92-7.98 1.44-9.18-3.14 3.55-6.42 7.41-9.86 11.61.78-1.08 4.36-5.93 9.75-12.35-.3-.37-2.29-.11-9.92 3.11 0 0 7.95-7.43 12.29-5.91 3.62-4.2 7.86-8.89 12.5-13.55-.92-.52-3.69-1.07-11.58 2.13 0 0 7.4-5.84 15.26-5.73 2.81-2.69 5.74-5.33 8.74-7.81-1.49-.22-4.98-.65-8.21-.34 0 0 8.29-3.28 11.93-2.64" fill="#00a86b" transform="matrix(1.0650241 0 0 1.0650241 139.87306 296.14643)"/><path d="m0 0c-57.9 15.21-60.32 60.67-60.46 73.8 37.21-18.83 55.89-54.7 64.25-73.14-4.04 1.74-11.42 6.11-22.19 17.05.26 1.77.4 5.92-2.49 11.19 0 0-1-1.87-.63-4.31 0 0 .28-2.44-.02-3.6-2.66 2.85-5.5 6.07-8.53 9.72.45 1.69 1.32 6.27-.79 10.88 0 0-.33-6.26-2.09-7.35-2.79 3.48-5.74 7.32-8.83 11.54.23 1.06.87 4.61-.07 7.14 0 0-.74-4.4-1.29-5.26-1.26 1.74-2.54 3.54-3.84 5.4.15-.26 1.31-2.29 3.35-5.48-.91.09-4.21.51-5.96 1.5.29-.23 5.11-4.05 7.4-3.7 2.1-3.21 4.86-7.21 8.17-11.59-.81-.53-3.1-1.4-8.37.11 0 0 2.34-4.16 11.3-3.91h.01c2.56-3.23 5.38-6.59 8.43-9.94-.94-.39-3.28-.78-8.6.72.39-.29 7.38-5.33 11.9-4.24 5.81-6.01 12.33-11.81 19.35-16.53" fill="#00a86b" transform="matrix(1.0650241 0 0 1.0650241 159.13935 330.46151)"/><path d="m0 0c3.58-3.39 9.46-8.38 14.95-10.87-38.57-2.09-49.71 44.99-55.84 68.21 29.96-22.38 49.27-52.43 57.48-66.96-3.07 1.38-9.26 4.67-15.53 11.01-.16 2-.9 6.66-4.27 10.42.09-.31 1.71-5.69 1.39-7.64-2.65 2.64-5.61 5.8-8.86 9.56.43 1.37.94 4.58-1.51 8.84 0 0-.71-3.96-.06-6.99-2.84 3.36-5.87 7.15-9.08 11.45.52 3.68-.72 7.37-.72 7.37.35-2.85-.14-4.36-.97-5.1-1.58 2.16-3.21 4.44-4.89 6.84.32-.56 1.89-3.26 4.43-7.15-1.7-.92-4.23.44-4.47.57 2.35-2.42 4.94-2.85 6.03-2.92 2.22-3.31 4.99-7.22 8.16-11.29 0 0-1.46-1.45-6.95 1.21.23-.25 4.27-4.71 8.99-3.76 2.72-3.36 5.7-6.78 8.86-10-.98-.98-2.42-.86-7.94.19 0 0 6.35-4.1 10.8-2.99" fill="#00a86b" transform="matrix(1.0650241 0 0 1.0650241 138.85064 401.30691)"/><path d="m0 0c14.77.99 25.07 2.69 32.25 4.52-8.31-8.66-16.07-21.17-22.11-39.09 0 0 56.19-19.76 79.61 55.57 0 0-13.13 4.49-29.45.31 25.23 23.56 32.95 64.19 32.95 64.19-10.93-.38-21.05-3.65-30.28-8.71 17.39 23.39 13.28 55.46 13.28 55.46-7.86-3.41-15.07-7.58-21.64-12.25 19.88 25.72 23.64 65.75 23.64 65.75-50.25-31.25-75.5-85.75-75.5-85.75 13.15-2.53 24.05-.68 33.08 3.91-28.35-28.93-39.83-63.91-39.83-63.91 16.31 2.78 28.05 7 36.32 11.14-20.77-23.77-32.32-51.14-32.32-51.14" fill="#12175e" transform="matrix(1.0650241 0 0 1.0650241 426.72102 278.10492)"/><path d="m0 0c8.42 1.95 45.33-9.55 65.5 48.12-24.18 3.18-47.12-7.87-64.24-45.3.56.24 1.18.52 1.85.83 1.09.5 2.31 1.08 3.63 1.73 1.33.65 2.75 1.39 4.25 2.17 1.48.82 4.91 2.71 5.04 2.78.41 1.88 1.92 6.5 7.14 10.74 0 0-3.8-6.14-3.23-8.43.21.13.41.25.62.38 1.68.99 3.32 2.08 4.98 3.14 1.67 1.06 3.27 2.21 4.88 3.3.03.02.06.04.09.06.16 1.38.77 5.37 2.53 7.93 0 0-1.42-5.09-.74-6.66.94.68 1.85 1.36 2.75 2.01 1.5 1.09 2.88 2.23 4.23 3.26 1.07.82 2.07 1.65 3 2.43-.09.95-.21 3.33.51 4.71l.37-3.97c1.07.91 2.08 1.7 2.91 2.48.9.8 1.68 1.51 2.32 2.09.86.76 1.48 1.32 1.79 1.6-.31-.3-.91-.87-1.73-1.67-.62-.6-1.38-1.32-2.25-2.16s-1.91-1.72-3.01-2.72c0 0 3.33.14 4.15.34-.39-.13-3.66-1.19-5.02-1.11-.85-.77-1.76-1.57-2.75-2.37-1.31-1.08-2.67-2.27-4.13-3.41-.88-.68-1.77-1.38-2.68-2.08.6-.47 2.24-1.26 5.85-.02 0 0-3.16-2.26-7.58-1.3-.04-.03-.09-.07-.13-.1-1.58-1.14-3.15-2.35-4.8-3.47-1.63-1.12-3.25-2.27-4.9-3.32-.17-.11-.34-.22-.5-.33 1.81-1.31 5.69-1.64 9.69-.07-.81-.4-8.81-4.18-13.74-2.48-.1-.07-3.45-2.06-4.92-2.92-1.49-.84-2.9-1.63-4.22-2.33-1.31-.7-2.53-1.33-3.62-1.87-1.08-.55-2.05-.99-2.83-1.37-.36-.16-.69-.31-.97-.43-.03-.07-.06-.14-.09-.21z" fill="#00a86b" stroke="#12175e" stroke-miterlimit="10" stroke-width=".25" transform="matrix(1.0650241 0 0 1.0650241 444.29392 245.14243)"/><path d="m0 0c-5.48-4.2-11.11-7.77-16.64-10.13 28.06.33 58.76 18.83 73.75 71.88-40.22-5.93-64.26-50.05-74.82-70.46 3.38 1.18 8.99 3.84 16.93 9.81.1 1.89.79 6.61 5.07 11.16-.11-.34-2.11-6.27-1.64-8.5 2.78 2.23 5.8 4.83 9.08 7.87.11 2.05.83 7.8 5.52 14.79-.12-.45-2.48-8.71-1.74-11.2 3.92 3.81 8.18 8.22 12.76 13.3-.3 1.32-.58 5.27 4.07 12.14-.1-.42-1.92-7.98-1.44-9.18 3.14 3.55 6.42 7.41 9.86 11.61-.78-1.08-4.36-5.93-9.75-12.35.3-.37 2.29-.11 9.92 3.11 0 0-7.95-7.43-12.29-5.91-3.62-4.2-7.86-8.89-12.5-13.55.92-.52 3.69-1.07 11.58 2.13 0 0-7.4-5.84-15.26-5.73-2.81-2.69-5.74-5.33-8.74-7.81 1.49-.22 4.98-.65 8.21-.34 0 0-8.29-3.28-11.93-2.64" fill="#00a86b" transform="matrix(1.0650241 0 0 1.0650241 456.8825 296.14643)"/><path d="m0 0c57.9 15.21 60.32 60.67 60.46 73.8-37.21-18.83-55.89-54.7-64.25-73.14 4.04 1.74 11.42 6.11 22.19 17.05-.26 1.77-.4 5.92 2.49 11.19 0 0 1-1.87.63-4.31 0 0-.28-2.44.02-3.6 2.66 2.85 5.5 6.07 8.53 9.72-.45 1.69-1.32 6.27.79 10.88 0 0 .33-6.26 2.09-7.35 2.79 3.48 5.74 7.32 8.83 11.54-.23 1.06-.87 4.61.07 7.14 0 0 .74-4.4 1.29-5.26 1.26 1.74 2.54 3.54 3.84 5.4-.15-.26-1.31-2.29-3.35-5.48.91.09 4.21.51 5.96 1.5-.29-.23-5.11-4.05-7.4-3.7-2.1-3.21-4.86-7.21-8.17-11.59.81-.53 3.1-1.4 8.37.11 0 0-2.34-4.16-11.3-3.91h-.01c-2.56-3.23-5.38-6.59-8.43-9.94.94-.39 3.28-.78 8.6.72-.39-.29-7.38-5.33-11.9-4.24-5.81-6.01-12.33-11.81-19.35-16.53" fill="#00a86b" transform="matrix(1.0650241 0 0 1.0650241 437.61622 330.46151)"/><path d="m0 0c-3.58-3.39-9.46-8.38-14.95-10.87 38.57-2.09 49.71 44.99 55.84 68.21-29.96-22.38-49.27-52.43-57.48-66.96 3.07 1.38 9.26 4.67 15.53 11.01.16 2 .9 6.66 4.27 10.42-.09-.31-1.71-5.69-1.39-7.64 2.65 2.64 5.61 5.8 8.86 9.56-.43 1.37-.94 4.58 1.51 8.84 0 0 .71-3.96.06-6.99 2.84 3.36 5.87 7.15 9.08 11.45-.52 3.68.72 7.37.72 7.37-.35-2.85.14-4.36.97-5.1 1.58 2.16 3.21 4.44 4.89 6.84-.32-.56-1.89-3.26-4.43-7.15 1.7-.92 4.23.44 4.47.57-2.35-2.42-4.94-2.85-6.03-2.92-2.22-3.31-4.99-7.22-8.16-11.29 0 0 1.46-1.45 6.95 1.21-.23-.25-4.27-4.71-8.99-3.76-2.72-3.36-5.7-6.78-8.86-10 .98-.98 2.42-.86 7.94.19 0 0-6.35-4.1-10.8-2.99" fill="#00a86b" transform="matrix(1.0650241 0 0 1.0650241 457.90492 401.30691)"/><path d="m0 0c-7.49 4.61-12.64 11.42-16.02 19.54-31.69 34.18-14.31 95.22-14.31 95.22 5.8-4.3 10.73-8.65 14.91-12.99 3.47 15 7.09 25.4 7.09 25.4 74.33-74.5 8.33-127.17 8.33-127.17" fill="#12175e" transform="matrix(1.0650241 0 0 1.0650241 235.35248 419.03957)"/><path d="m0 0c-.9.15-1.82.23-2.76.23h-.13c-.47 3.83-1.31 8.2-2.38 12.77v.01c1.15 1.39 3.36 4.72 2.23 8.8 0 0-1.78-3.66-3.38-4.14-1.11 4.33-2.36 8.74-3.64 12.99 1.55 1.48 4.85 5.22 4.02 9.65 0 0-2.72-5.98-5.27-5.54-.96 3.06-1.91 5.98-2.8 8.65.55 1.59 2.18 6.46 2.32 8.81 0 0-2.43-4.07-3.57-5.07-1.97 5.77-3.46 9.82-3.79 10.71.28-.88 1.47-4.72 3.06-10.18.06-.2.12-.4.17-.6 0 0-.7-.53-5.6 2.54.3-.31 4.77-4.83 6.7-6.35.55-1.98 1.14-4.09 1.74-6.28.22-.8.43-1.6.65-2.42-.65-.72-2.57-1.43-8.11 2.32 0 0 3.27-5.34 9.29-6.82.46-1.78.91-3.58 1.36-5.39.58-2.39 1.14-4.78 1.67-7.13-.93-.53-3.06-.94-6.99 2 0 0 3.22-5.76 8.07-7.03.02-.08.03-.16.05-.24.37-1.99.8-3.9 1.07-5.73.28-1.83.63-3.56.79-5.16.05-.46.1-.9.16-1.33-5.1-.71-9.43-3.75-11.85-7.98-16.52 41.96-7.9 81.64-7.9 81.64 26.35-20.27 28.03-51.31 24.82-73.73" fill="#00a86b" transform="matrix(1.0650241 0 0 1.0650241 232.91357 451.99141)"/><path d="m0 0c-2.22 1.04-4.59 1.61-7.06 1.61-1.09 0-2.16-.11-3.2-.33 0 1.37-.03 2.91-.08 4.6-.03 1.64-.14 3.41-.21 5.29-.04.54-.07 1.08-.11 1.64 1.44 1.03 4.82 3.8 6.32 7.92-.23-.22-4.24-4.06-6.66-3.33-.17 1.93-.33 3.93-.58 5.94-.22 2.14-.52 4.3-.83 6.46-.27 2.17-.67 4.31-1.02 6.43-.32 2.12-.8 4.19-1.18 6.19-.36 2.01-.87 3.93-1.28 5.76-.4 1.83-.86 3.54-1.29 5.11-.22.81-.42 1.58-.62 2.32.71.8 3.12 3.78 2.35 6.91 0 0-2.37-4.39-3.09-4.06-.29.95-.62 1.7-.84 2.42-.39 1.25-.66 2.13-.8 2.56.12-.43.37-1.32.72-2.59.2-.69.42-1.49.67-2.39-.24-.15-1.42-.48-5.84 2.22.12-.24 2.1-4.13 6.62-5.28.17-.69.34-1.42.53-2.18.38-1.59.79-3.31 1.14-5.14.35-1.84.8-3.76 1.11-5.78.32-2.01.74-4.07 1-6.2.28-2.12.62-4.26.83-6.43.25-2.15.48-4.31.64-6.45.18-1.92.29-3.83.4-5.69-.99-.36-3.18-.42-6.14 3.84.08-.33 1.4-5.48 6.35-8.53.02-.59.04-1.17.06-1.74.03-1.86.08-3.62.06-5.25 0-1.89-.03-3.59-.07-5.05v-.01c-3.67-1.19-6.99-3.66-9.72-7.07-.03.03-.04.06-.04.09 2.99 17.67 3.36 41.84-9.89 61.72 1.22 16.46 5.03 26.83 5.03 26.83 29.11-31.95 30.97-61.87 26.72-82.36" fill="#00a86b" transform="matrix(1.0650241 0 0 1.0650241 257.78188 455.04803)"/><path d="m0 0c7.582 4.61 12.795 11.42 16.216 19.54 32.078 34.18 14.485 95.22 14.485 95.22-5.871-4.3-10.861-8.65-15.092-12.99-3.513 15-7.177 25.4-7.177 25.4-75.24-74.5-8.432-127.17-8.432-127.17" fill="#12175e" transform="matrix(1.0650241 0 0 1.0650241 361.55091 419.3218)"/><path d="m0 0c.911.15 1.842.23 2.794.23h.131c.476 3.83 1.326 8.2 2.409 12.77v.01c-1.164 1.39-3.401 4.72-2.257 8.8 0 0 1.802-3.66 3.422-4.14 1.123 4.33 2.388 8.74 3.684 12.99-1.569 1.48-4.909 5.22-4.069 9.65 0 0 2.753-5.98 5.334-5.54.972 3.06 1.934 5.98 2.835 8.65-.557 1.59-2.207 6.46-2.349 8.81 0 0 2.46-4.07 3.614-5.07 1.994 5.77 3.502 9.82 3.836 10.71-.283-.88-1.488-4.72-3.097-10.18-.061-.2-.122-.4-.172-.6 0 0 .708-.53 5.668 2.54-.303-.31-4.828-4.83-6.782-6.35-.556-1.98-1.154-4.09-1.761-6.28-.223-.8-.435-1.6-.658-2.42.658-.72 2.602-1.43 8.209 2.32 0 0-3.31-5.34-9.403-6.82-.466-1.78-.921-3.58-1.377-5.39-.587-2.39-1.154-4.78-1.69-7.13.941-.53 3.097-.94 7.075 2 0 0-3.259-5.76-8.169-7.03-.02-.08-.03-.16-.05-.24-.375-1.99-.81-3.9-1.083-5.73-.284-1.83-.638-3.56-.8-5.16-.051-.46-.101-.9-.162-1.33 5.162-.71 9.545-3.75 11.995-7.98 16.722 41.96 7.997 81.64 7.997 81.64-26.673-20.27-28.373-51.31-25.124-73.73" fill="#00a86b" transform="matrix(1.0650241 0 0 1.0650241 364.01975 452.27364)"/><path d="m0 0c2.247 1.04 4.646 1.61 7.146 1.61 1.104 0 2.187-.11 3.24-.33 0 1.37.03 2.91.081 4.6.03 1.64.141 3.41.212 5.29.041.54.071 1.08.112 1.64-1.458 1.03-4.879 3.8-6.398 7.92.233-.22 4.292-4.06 6.742-3.33.172 1.93.334 3.93.587 5.94.222 2.14.526 4.3.84 6.46.273 2.17.678 4.31 1.032 6.43.324 2.12.81 4.19 1.195 6.19.364 2.01.881 3.93 1.296 5.76.404 1.83.87 3.54 1.305 5.11.223.81.425 1.58.628 2.32-.719.8-3.158 3.78-2.379 6.91 0 0 2.399-4.39 3.128-4.06.294.95.628 1.7.85 2.42.395 1.25.668 2.13.81 2.56-.121-.43-.374-1.32-.729-2.59-.202-.69-.425-1.49-.678-2.39.243-.15 1.437-.48 5.912 2.22-.122-.24-2.126-4.13-6.702-5.28-.172-.69-.344-1.42-.536-2.18-.385-1.59-.8-3.31-1.154-5.14-.354-1.84-.81-3.76-1.124-5.78-.323-2.01-.749-4.07-1.012-6.2-.283-2.12-.627-4.26-.84-6.43-.253-2.15-.486-4.31-.648-6.45-.182-1.92-.293-3.83-.405-5.69 1.002-.36 3.219-.42 6.215 3.84-.08-.33-1.417-5.48-6.427-8.53-.02-.59-.041-1.17-.061-1.74-.03-1.86-.081-3.62-.061-5.25 0-1.89.031-3.59.071-5.05v-.01c3.715-1.19 7.076-3.66 9.839-7.07.031.03.041.06.041.09-3.027 17.67-3.402 41.84 10.011 61.72-1.235 16.46-5.092 26.83-5.092 26.83-29.466-31.95-31.349-61.87-27.047-82.36" fill="#00a86b" transform="matrix(1.0650241 0 0 1.0650241 338.84694 455.33026)"/><path d="m0 0c0 .01-.01.03-.02.04-1.53 2.89-4.78 5.05-8.01 5.05-1.58 0-3.05-.45-4.29-1.24-2.14 1.43-5.08 2.26-7.3 2.26-1.624 0-3.117-.539-4.312-1.449-1.11-.845-2.592-1.137-3.888-.619-.787.315-1.645.488-2.54.488-2.67 0-4.98-1.52-6.16-3.76-.63.03-1.27.03-1.92.03-3.17 0-5.92-1.9-7.32-4.71-4.12.22-6.09-2.66-10.99-7.56-4.34-4.34-7.14-3.83-7.57-8.62-1.96-1.24-3.69-3.35-5.08-6.06-2.3 3.75-3.85 5.68-3.85 5.68-.76.98-1.51 1.93-2.26 2.86 2.56 2.51 5 6.1 6.85 10.36 2.22 5.12 2.63 10.35 2.08 14.39 3.34 2.14 5.93 5.36 7.28 9.16 1.19-.5 2.47-.77 3.8-.77 4.06 0 7.62 2.51 9.6 6.28.44-.33 1.03-.53 1.7-.53 1.26 0 2.3.74 2.44 1.68 1.46-.1 3.1-.16 4.82-.16 1.8 0 3.5.06 5.01.17 2.83-3.76 8.92-6.36 15.99-6.36.7 0 1.39.03 2.07.08.87-3.17 3.78-5.5 7.23-5.5.21 0 .42.01.63.03.64-1.38 1.39-2.67 2.13-3.9 1.16-1.91 2.43-3.6 3.88-4.83zm-82.19 43.28c-3.93-.5-6.96-3.86-6.96-7.92 0-1.57.45-3.03 1.22-4.26-2.84-1.58-4.74-4.41-4.74-7.64 0-1.02.19-2.01.55-2.92v-.01c-1.04-2.96-1.71-7.78-1.71-13.21 0-2.37.13-4.62.35-6.65-6.37 4.85-12.33 7.44-18.1 8.05 1.13 2.1 2.19 4.46 3.11 6.99 1.14 3.14 1.94 6.2 2.4 9 2.98 1.32 5.07 4.44 5.07 8.07 0 1.08-.19 2.12-.53 3.08 4.55.05 8.2 2.99 8.2 6.61 0 .74-.16 1.46-.44 2.13.32-.05.65-.07.98-.07 3.3 0 6.01 2.15 6.41 4.93 3.87.93 6.92 3.43 8.02 6.58.14-.01.29-.01.44-.01 2.43 0 4.51 1.16 5.43 2.83h7.37v-1.79c-5.11-.25-9.52-3.47-11.8-8.12-2.94-.22-5.25-2.67-5.27-5.67m-59.81-48.75c-4.24-4.11-8.01-8.7-11.34-13.53.18.83.28 1.78.28 2.78 0 2.87-.82 6.35-1.92 7.1 1.17.5 1.93 2.07 1.92 3.76-.02 2.15-1.4 3.89-3.11 3.89h-.03c1.05.9 2.13 2.59 3.14 4.33 1.89 3.29 2.03 6.96 1.09 7.5-.24.14-.58.09-.98-.11 1.01 1.49 1.89 3.65 2.56 6.04 1.02 3.63 1.38 8.1.7 10.43.79.05 1.43.63 1.57 1.4.31-.41.81-.67 1.37-.67.12 0 .23.01.34.04-.03-.33-.05-.72-.05-1.13 0-.33.01-.65.03-.94-.51-.92-.81-2.07-.81-3.31 0-1.64.53-3.11 1.37-4.12.61-2.38 2.33-3.58 4.93-6.94.3-.38-.21-1.74.11-2.18 2.3-3.19 4.58-6.03 6.55-7.7-2.55-1.89-5.11-4.12-7.72-6.64m169.24-42.71c1.36 1.36 2.26 3.77 2.26 6.51 0 2.81-.95 5.27-2.37 6.6.32 1.01.49 2.13.49 3.3 0 4.52-2.951 7.846-5.984 9.362l-.016 4.458 4.88-.27-9.16 6.36c-1.06 4.09-4.06 7.04-7.59 7.04-.283 0-.563-.019-.838-.056-.86-.115-1.718.306-2.073 1.097-.802 1.786-1.976 3.135-3.339 3.769v.57c.65-.19 1.34-.28 2.06-.28 4.024 0 7.586 2.883 10.021 6.826.387.626.911 1.158 1.529 1.559 2.905 1.882 4.89 4.997 4.89 9.015 0 1.827-.396 3.551-1.102 5.071-.752 1.622-.572 3.48.446 4.949.91 1.313 1.536 2.79 1.536 4.35 0 3.225-1.288 6.096-3.282 7.911-1.172 1.068-1.933 2.527-1.922 4.112.027 3.562-1.598 5.383-3.235 6.302-1.821 1.023-3.214 2.705-3.718 4.733-.718 2.888-2.621 6.489-7.613 7.342-1 2.81-3.83 4.83-7.17 4.83-.62 0-1.23-.07-1.81-.21-1.5 2.73-4.77 4.62-8.57 4.62-.58 0-1.718-.028-2.268-.118-2.8 2.05-5.882 3.278-9.882 3.278-3.93 0-7.52-1.2-10.3-3.17-1.03.28-2.15.43-3.32.43-4.7 0-8.832-2.455-10.01-5.58h-1.7c3.712 15.75-9.75 24.94-16.78 26.68h-.01c-2.32 3.91-7.63 7.72-10.04 7.72-.95 0-1.84-.35-2.62-.97-.46 1.99-2.34 3.49-4.59 3.49-.54 0-1.058-.086-1.54-.245-1.131-.372-2.379-.115-3.365.554-1.22.826-2.696 1.308-4.285 1.311-2.504.005-4.792-.897-6.183-2.79-.78.21-1.809.333-2.709.333-3.62 0-6.348-2.133-6.448-4.373-1.35.75-2.89 1.17-4.51 1.17-5.28 0-9.59-4.46-9.9-10.08-.69.29-1.43.45-2.21.45-3.56 0-6.45-3.32-6.45-7.42h-2.85c-.45 1.76-1.47 3-2.67 3-.52 0-1.01-.23-1.43-.64.01.05.01.09.01.14 0 5.02-3.1 9.09-6.92 9.09-1.3 0-2.51-.47-3.55-1.29-1.54 4.32-5 5.12-9.45 5.12-2.94 0-7.09-2.91-9.96-5.81-1.06.47-2.25.73-3.5.73-3.88 0-7.13-2.48-7.93-5.8-.68.35-1.473.621-2.31.55-2.889-.246-4.025-1.598-4.445-2.852-.333-.991-1.179-1.743-2.209-1.915-2.515-.42-4.993-3.453-5.306-4.823-.08-.35-.14-.67-.16-.95-.72 1.02-2.04.96-4.3-1.21-3-3.13-2.46-4.56-2.46-10.17 0-1.56.11-3.04.31-4.36-.1.02-.21.03-.31.03-1.93 0-3.5-2.62-3.5-5.84 0-1.33.27-2.56.73-3.54-2.48-1.8-4.12-4.9-4.12-8.43 0-1.77.41-3.44 1.14-4.88l-5.009-6.445 3.019-.465c-.07-.42-.51-2.005-.51-2.445 0-2.39 1.43-3.325 2.94-4.365-.17-1.03-.732-2.953-.732-4.093 0-5.43 2.584-8.25 4.334-10.417-1.459-3.333 1.928-7.36 3.958-8.3-.78-1.1-1.23-2.46-1.23-3.95 0-3.09 1.96-5.67 4.58-6.33-.54-.21-.93-.74-.93-1.36 0-.32.1-.62.27-.86-3.16 1.85-6.97 2.93-11.06 2.93-3.48 0-6.75-.78-9.59-2.14-.95.31-1.96.48-3.01.48-4.14 0-9.601-5.612-9.905-5.512-1.336.439-2.609.048-3.495-1.228v3.26l-4.37-6.07c-1.38-1.46-2.36-3.31-2.77-5.36-.07.01-.15.013-.22.01-3.976-.187-5.511-2.564-6.093-4.569-.439-1.515-1.414-2.816-2.726-3.692-1.518-1.013-2.521-2.742-2.521-4.709 0-.25.02-.49.05-.73-2.32-1.54-3.73-4.09-3.73-7.44 0-2.483.261-4.891 1.518-6.814 1.377-2.108 1.025-4.919-.646-6.802-1.297-1.464-1.945-1.96-1.872-5.174.167-7.307 5.33-8.19 5.33-8.31 0-2.551 1.305-4.794 3.284-6.103 1.362-.902 2.468-2.189 2.803-3.788.591-2.826 3.36-6.019 5.834-6.417 2.022-.325 3.484-2.07 4.312-3.943.948-2.144 3.307-4.599 8.737-6.515 2.742-.967 5.438-2.073 8.034-3.383 2.821-1.424 6.277-2.273 9.916-2.431 11.63-.5 15.75 4.99 15.75 12.06 0 2.84-1.17 5.46-3.16 7.58.03.3.04.61.04.92 0 3.408-1.495 6.434-3.8 8.316-1.261 1.03-1.251 2.995-.019 4.06 1.729 1.493 2.819 3.676 2.819 6.114 0 .91-.15 1.79-.44 2.61 3.06.67 5.4 3.35 5.65 6.63 3.082.763 5.564 2.962 6.614 5.806.483 1.308 1.901 1.964 3.215 1.497 1.977-.703 4.106-1.083 6.331-1.083 2.13 0 4.17.35 6.08 1-.01-.08-.01-.15-.01-.23 0-1.11.49-2.11 1.26-2.79-4.72-13.42-6.5-23.57-6.5-23.57-13.33-1.25-6.25-24.17-6.25-24.17 6-20.17 18.13-14.53 18.13-14.53 14.54-24.05 14.79-32.46 14.79-32.46.67-6.84-7.2-12.19-7.2-12.19l1.7-3.42c-6.17-8.15-20.18-13.07-20.18-13.07 21.25-28.75 22.68-47.83 22.68-47.83l78-2.75c.42 23.67 22.58 50.42 22.58 50.42-9.29 3.41-19.33 11.08-19.33 11.08l.25 5s-5.92 4.49-6.67 11.75 14.92 33.47 14.92 33.47c6.25-1.03 13.45-.94 18.08 18.28 5 20.75-6.83 20.25-6.83 20.25-.8 5.1-1.81 9.88-2.94 14.32-.97 3.77-2.03 7.3-3.13 10.58 2.8 1.42 5.69 3.22 8.54 5.35.54.4 1.07.81 1.58 1.23 2.08 1.65 3.97 3.37 5.65 5.11.53-.22 1.12-.34 1.74-.34.8 0 1.55.2 2.19.56 1.81-2.21 5.12-3.68 8.91-3.68 1.13 0 2.21.13 3.23.38-.01-.16-.02-.32-.02-.49 0-.89.21-1.7.55-2.31-1.29-1.96-2.05-4.45-2.05-7.16 0-.97.1-1.91.29-2.8h-3.91l.67-1.5c-1.74-.74-3.13-1.94-3.9-3.38-11.77.46-15.775-2.433-15.85-7.08-.054-3.36 4.39-8.6 9.45-13.92 4.08-4.28 7.13-8.37 13.25-9.12 3.18-.39 9.53 1.73 10.29 1.22l-.29-1.72 4.625.625c1.43-.52 1.235-1.005 2.935-1.005 4.78 0 8.84 2.31 10.26 5.52.14-.01.29-.01.43-.01 4.72 0 8.63 3.33 9.37 7.7.49-.09.99-.14 1.5-.14 4.397 0 7.951 3.391 7.94 7.58 3.5.28 8.29 2.87 7.82 15.89-.09 2.35-.06 4.6-.14 6.63" fill="#12175e" transform="matrix(1.0650241 0 0 1.0650241 419.78271 685.97721)"/><path d="m0 0c-19.73 2.34-35.02 1.71-35.02 1.71s-15.39.63-35.2-1.73c-2.66 6.73-6.74 15.1-12.97 24.69 7.43 4.14 16.33 10.29 21.45 18.01 7.45-4.67 16.82-7.29 26.78-7.29 9.75 0 19.01 2.55 26.42 7.09 5.17-7.68 14.07-13.79 21.52-17.92-4.16-6.21-9.33-14.95-12.98-24.56m-5.2 55.2c-6.19-7.3-17.2-12.16-29.76-12.16-12.9 0-24.17 5.13-30.26 12.76.01-.13.01-.25.01-.38 0-9.69-12.53-20.27-29.24-27.87 8.18-11.3 13.27-21.04 16.42-28.63 4.63-11.13 5.12-17.63 5.12-17.63l76-2.75c.12 6.79 2.03 13.82 4.68 20.41 5.28 13.08 13.53 24.39 16.65 28.43-16.78 7.55-29.44 18.12-29.62 27.82" fill="#fff" transform="matrix(1.0650241 0 0 1.0650241 335.8162 468.70164)"/><path d="m0 0c-19.73 2.34-35.02 1.71-35.02 1.71s-15.39.63-35.2-1.73c-2.66 6.73-6.74 15.1-12.97 24.69 7.43 4.14 16.33 10.29 21.45 18.01 7.45-4.67 16.82-7.29 26.78-7.29 9.75 0 19.01 2.55 26.42 7.09 5.17-7.68 14.07-13.79 21.52-17.92-4.16-6.21-9.33-14.95-12.98-24.56zm-5.2 55.2c-6.19-7.3-17.2-12.16-29.76-12.16-12.9 0-24.17 5.13-30.26 12.76.01-.13.01-.25.01-.38 0-9.69-12.53-20.27-29.24-27.87 8.18-11.3 13.27-21.04 16.42-28.63 4.63-11.13 5.12-17.63 5.12-17.63l76-2.75c.12 6.79 2.03 13.82 4.68 20.41 5.28 13.08 13.53 24.39 16.65 28.43-16.78 7.55-29.44 18.12-29.62 27.82z" fill="none" stroke="#12175e" stroke-miterlimit="10" stroke-width="1.5" transform="matrix(1.0650241 0 0 1.0650241 335.8162 468.70164)"/><g fill="#fff"><path d="m0 0c0-8.527-3.335-15.439-7.448-15.439-4.114 0-7.449 6.912-7.449 15.439s3.335 15.439 7.449 15.439c4.113 0 7.448-6.912 7.448-15.439" transform="matrix(1.0650241 0 0 1.0650241 306.68492 663.75644)"/><path d="m0 0c-3.28-7.164-8.191-11.491-10.973-10.217s-2.613 8.003.666 15.167c3.28 7.163 7.968 11.357 10.75 10.083s2.837-7.869-.443-15.033" transform="matrix(1.0650241 0 0 1.0650241 321.77205 651.53817)"/><path d="m0 0c-2.992-5.81-8.476-9.78-10.767-8.6-2.292 1.18-1.076 7.884 1.916 13.694 2.993 5.81 8.459 9.43 10.75 8.25 2.292-1.18 1.093-7.534-1.899-13.344" transform="matrix(1.0650241 0 0 1.0650241 334.42177 639.31393)"/><path d="m0 0c-3.742-5.462-8.17-8.149-10.333-6.667-2.164 1.483-1.069 6.176 2.673 11.638 3.741 5.462 7.913 7.845 10.077 6.362 2.163-1.482 1.325-5.871-2.417-11.333" transform="matrix(1.0650241 0 0 1.0650241 344.25471 625.21397)"/><path d="m0 0c-2.187-3.259-5.113-5.128-6.535-4.174-1.421.954-.801 4.37 1.386 7.629s5.113 5.128 6.535 4.174.801-4.37-1.386-7.629" transform="matrix(1.0650241 0 0 1.0650241 350.51386 614.72508)"/><path d="m0 0c3.28-7.164 8.191-11.491 10.973-10.217s2.613 8.003-.666 15.167c-3.28 7.163-7.968 11.357-10.75 10.083s-2.837-7.869.443-15.033" transform="matrix(1.0650241 0 0 1.0650241 275.07181 651.53817)"/><path d="m0 0c2.992-5.81 8.476-9.78 10.767-8.6 2.292 1.18 1.076 7.884-1.916 13.694-2.993 5.81-8.459 9.43-10.75 8.25-2.292-1.18-1.093-7.534 1.899-13.344" transform="matrix(1.0650241 0 0 1.0650241 262.4222 639.31393)"/><path d="m0 0c3.742-5.462 8.17-8.149 10.333-6.667 2.164 1.483 1.069 6.176-2.673 11.638-3.741 5.462-7.913 7.845-10.077 6.362-2.163-1.482-1.325-5.871 2.417-11.333" transform="matrix(1.0650241 0 0 1.0650241 252.58915 625.21397)"/><path d="m0 0c2.187-3.259 5.113-5.128 6.535-4.174 1.421.954.801 4.37-1.386 7.629s-5.113 5.128-6.535 4.174-.801-4.37 1.386-7.629" transform="matrix(1.0650241 0 0 1.0650241 246.33011 614.72508)"/><path d="m0 0c-7.37-5.34-19.58-12.96-34.81-17.82 0 0-9.07-3.63-26.66 1.62-10.51 3.14-21.08 10.52-27.88 15.95-4.58 3.66-7.46 6.44-7.46 6.44s1.44 1.44 4.13 3.57c12.24 9.68 50.33 33.53 95.95-.11 1.48-1.09 2.97-2.25 4.46-3.46 0 0-2.76-2.58-7.73-6.19m17.69 19.97c-1.26.75-3.76-.18-6.45-2.05-12.16 12.83-56.17 38.56-56.17 38.56s-45.71-28.71-55.81-38.45c-2.63 1.79-5.06 2.68-6.29 1.94-2.92-1.75-3.06-8.51-.17-17.25s5.34-10.75 9.17-10.56c1.23.06 3.04.49 4.69 1.44 16.75-17.31 48.41-34.8 48.41-34.8s31.73 17.7 48.48 35.08c1.76-1.15 3.8-1.65 5.14-1.72 3.83-.19 6.28 1.82 9.17 10.56s2.75 15.5-.17 17.25" transform="matrix(1.0650241 0 0 1.0650241 346.09369 577.58971)"/></g><path d="m0 0c-24.52 51.62-64.04 89.46-115.81 112.62-14.56 6.51-30.09 11.79-46.56 15.75 2.62 5.03 5.12 10.14 7.47 15.31 16.12 35.45 25.54 74 25.54 110.61 0 29.98-5.91 60.02-16.4 88.2-7.69 20.72-17.87 40.44-29.99 58.39l73.42 40.7c13.1-19.67 24.26-41.36 32.73-63.87 32.99 10.3 69.6 8.8 69.6 8.8s36.61 1.5 69.6-8.8c8.47 22.51 19.63 44.2 32.73 63.87l73.42-40.7c-12.12-17.95-22.3-37.67-29.99-58.39-10.49-28.18-16.4-58.22-16.4-88.2 0-36.61 9.42-75.16 25.54-110.61 2.35-5.17 4.85-10.28 7.47-15.31-16.47-3.96-32-9.24-46.56-15.75-51.77-23.16-91.29-61-115.81-112.62" fill="#12175e" transform="matrix(1.0650241 0 0 1.0650241 298.51916 50.711731)"/><path d="m0 0c-25.559 44.786-63.078 77.456-111.759 99.234-11.55 5.164-24.361 10.043-36.944 13.646 19 42.875 29.265 87.944 29.265 124.968 0 30.476-6.118 51.679-17.024 86.661-5.694 18.263-15.178 32.808-25.185 51.403l56.008 31.047c12.749-18.767 21.012-39.629 28.123-58.528l4.991 1.442c47.377 13.682 97.662 13.647 145.02-.102l4.614-1.34c7.11 18.899 16.251 40.886 28.529 58.528l56.008-31.047c-10.075-16.221-18.529-33.472-25.188-51.412-11.291-30.337-17.019-61.176-17.019-91.652 0-37.025 11.254-80.947 29.588-119.781-12.584-3.602-25.718-8.669-37.267-13.833-48.682-21.778-86.201-54.448-111.76-99.234" fill="#fff" transform="matrix(1.0650241 0 0 1.0650241 298.51916 73.548511)"/><path d="m0 0c-.39-.63-.77-1.26-1.18-1.88-15.76-24.78-43.4-42.04-75.32-42.04-42.16 0-77.57 28.16-87.53 67h9.48c10.05-33.89 41.99-58.67 79.05-58.67 28.54 0 54.94 14.47 69.57 36.69.52.79 1.03 1.59 1.52 2.4l-2.6 1.62-5.21 3.27-2.41 1.5c-.43-.84-.88-1.67-1.35-2.48-12.4-21.42-37.64-32.21-61.52-31.62-29.58.72-56.09 21.47-64.93 47.29h10.84c8.34-21.56 29.37-37.07 53.57-37.88.67-.03 1.34-.04 2.02-.04.33 0 .68.04 1.03.11v37.81h8.08v-36.66c.92.11 1.84.25 2.75.4 1.39.24 2.76.53 4.12.86.88.22 1.76.45 2.63.71 13.76 4.05 25.45 12.89 33.13 24.42.53.78 1.03 1.58 1.52 2.39l-2.91 2.01-2.59 1.79-2.31 1.6c-.49-.81-1-1.6-1.53-2.38-6.04-8.79-15.07-15.72-25.31-19.6v24.46h67.24c-2.18-8.14-5.53-15.9-9.85-23.08m-145.94 23.08c9.55-29.15 37.12-50.55 69.21-50.55 26.43 0 50.53 12.02 63.12 33.39l5.18-3.25c-13.72-22.58-40.59-35.76-68.57-35.76-34.85 0-64.59 24.11-74.43 56.17-2.25 7.32-3.46 15.05-3.46 23 0 7.69 1.16 15.13 3.32 22.16 9.82 32.15 40.27 55.84 74.57 55.84 28.13 0 56.13-14.45 69.8-37.05l-5.3-3.24c-12.66 21.26-37.88 34.62-64.23 34.62-31.28 0-59.17-21.21-69.01-50.17-2.45-7.18-3.78-14.83-3.78-22.75 0-7.8 1.26-15.33 3.58-22.41m25.57 0h35.31v-27.17c-12.26 2.3-23.01 9.61-30.39 19.36-1.87 2.46-3.52 5.08-4.92 7.81m-7.87 18.81v-.02c.14-5.32 1.26-10.63 3.23-15.71.41-1.04.85-2.07 1.33-3.08 6.8-14.58 20.73-26.61 38.62-29.97.96-.19 1.93-.35 2.92-.47v50.85h-22.33v4.48h26.45v-59.63c-21.9.22-42.41 14.55-50.84 34.74-2.58 6.2-4.03 12.94-4.03 20 0 4.27.53 8.44 1.53 12.43 1.11 4.48 2.81 8.75 4.99 12.73 1.69 3.09 3.68 6.01 5.91 8.72 1.9 2.31 3.98 4.48 6.22 6.46.03.03.06.06.09.08 3.01 2.67 6.29 5.03 9.78 7.02 5.43 3.11 11.37 5.33 17.53 6.46.41.08 5.2 1.008 8.82.84v-.01-4.66c-18.52-.96-34.46-10.66-43.16-24.91-.96-1.57-1.83-3.19-2.61-4.86-1.1-2.35-2-4.8-2.71-7.34-1.15-4.12-1.76-8.47-1.76-12.96 0-.39.01-.79.02-1.19m70.85-46.56c11.67 4.05 21.36 11.64 27.66 21.26l2.66-1.84c-6.57-10.76-17.29-19.17-30.32-23.2-.87-.27-1.74-.52-2.63-.74-1.35-.36-2.73-.66-4.12-.91v109.01c1.39-.29 2.76-.64 4.12-1.04.88-.26 1.76-.55 2.63-.86 11.19-3.93 21.14-11.35 27.95-19.9l-2.77-1.99c-6.27 7.79-15.14 14.63-25.18 18.72-.87.35-1.74.69-2.63.99v-46.86h21.06v-4.48h-21.06v-48.99c.89.25 1.77.53 2.63.83m-19.11 140.41c32.98 0 61.39-17.67 76.86-44.07.81-1.37 1.58-2.77 2.31-4.2 3.13-6.03 5.6-12.48 7.31-19.23h-67.37v22.78c9.01-4.17 16.95-10.54 22.68-17.7.6-.75 1.18-1.5 1.72-2.26l2.51 1.8 2.77 1.99 2.46 1.77c-.53.77-1.1 1.54-1.69 2.29-7.24 9.3-18.19 17.34-30.45 21.12-.87.27-1.75.51-2.63.73-.3.09-.61.16-.91.23-1.96.47-3.95.82-5.96 1.05v-33.8h-50.88c8.58 12.59 23.24 21.18 39.75 22.11.99.06 1.99.09 3 .09h.05v10.55c-.69 0-2.37-.01-3.05-.04-4.83-.15-9.54-.87-14.05-2.1-.01 0-.03 0-.04-.01-16.48-4.49-30.25-15.7-37.59-30.6h-12.67c8.81 25.6 35.09 45.81 64.87 47.09 24.33 1.05 50.32-12.38 62.67-32.98.48-.81.95-1.63 1.39-2.47l2.34 1.43 5.31 3.26 2.14 1.31c-.47.83-.95 1.64-1.44 2.45-14.36 23.26-41.09 38.75-70.41 38.75-37.12 0-69.1-24.86-79.1-58.84h-9.32c10.12 38.84 45.42 67.5 87.42 67.5m-1 7c-53.39 0-96.67-43.28-96.67-96.66 0-53.39 43.28-96.67 96.67-96.67s96.67 43.28 96.67 96.67c0 53.38-43.28 96.66-96.67 96.66" fill="#12175e" transform="matrix(1.0650241 0 0 1.0650241 381.05843 263.82295)"/><path d="m0 0-1.62-4.88c-5.12 7.59-10.87 4.89-12.33 4.89-1.53 0-3.81-.61-4.43.75-1.13 2.48-5.55-.13-8.78-1.81-1.21-.62-2.25-2.34-2.75-3.66-.62-1.67-4.48-3.18-5-4.58-.24-.62-2.14-3.78-2.69-4.17-1.43-.99-3.94-3.27-3.4-7.6 0-.03.01-.05.01-.06 0-.94-.54-1.55-.85-1.82-1.87-1.62-2.93-3.97-2.89-6.45.03-2.46 1.14-4.75 3.03-6.3 1.07-.87 1.71-2.34 1.71-3.92 0-.12 0-.24-.01-.35l-.03-.27c-.15-1.52.39-3.03 1.47-4.11l.07-.07c.74-.79 1.54-2.38 1.54-4.01 0-3.11-2.87-5.93-8.75-5.92-.38 0-1.01-.02-1.42 0-2.81.12-6.21 1.15-8.31 2.21-2.65 1.34-4.4 1.7-7.6 2.84-3.42 1.2-5.11 3.99-5.5 4.87-1.62 3.65-3.79 5.41-6.98 6.18-.53.13-1.03.37-1.43.74-.47.43-.93.99-.93 1.41 0 7.09-2.83 5.3-5.59 7.13-.22.14-.74.57-.74 1.37 0 1.95-.48 4.56-3.42 5.59-.42.15-1.85.29-1.91 2.85-.01.36 0 .62 0 .79.06.07.44.49.44.49 1.56 1.75 2.67 3.9 3.15 6.12h.45c.44 0 .79.35.79.79v1.54c0 .44-.35.79-.79.79h-.19c-.09 1.62-.57 3.19-1.48 4.58-.59.91-1.08 2.85-1.08 3.55 0 1.72.39 2.39.91 2.73l1.18.78c1.07.71 1.34 1.31 1.18 2.58l-.13.73c-.25 1.42.69 2.88 2.06 3.33 2.26.74 3.23 2.33 3.21 4.85 0 1.6 6.48.83 6.74 5.31.06.99.55 1.91 1.25 2.62.86.87 2.05 1.85 3.28 2.18 2.08.55 4.22 1.28 4.89 1.83 3.43 2.85 4.81 3.38 5.32 3.44.35 0 .77-.07 1.18-.2l.12-.04c1.31-.42 2.74-.33 3.98.26l1.5.64c2.16 1.03 3.24 1 5.75 1 2.96 0 6.13.03 8.54-1.38 0 0 1.65-1.77 3.72-3.17 1.44-.99 3.14-1.59 4.89-1.58 2.93.02 3.72-1.47 3.72-1.47 2.48-1.34 5.39-3.65 8.34-6.32-6.4.91-17.55 2.16-20.09.21 0 0-6.5 5.64-20.38.82 0 0 12.26 2.06 17-.82 0 0-8-3.75-8.12-4.38 0 0-11.43.72-24.96-8.72.97.4 18.15 7.43 20.58 5.85 0 0-7.62-7.5-8.74-9.75 0 0-1-1.88-5.63-4-4.49-2.05-9.79-9.51-10.11-9.98.53.44 10.79 8.97 12.86 8.48 0 0-8.5-10.12-.75-25.88 0 0-3.25 17.52 2.63 25.58 0 0 4.21-10.12 4.49-13.5-.07 1.82-.57 10.92-3.37 15.3 0 0 7.75 10.62 11.25 13.12 0 0 2.37-8.99-.24-19.1.24.57 4.97 11.91 2.61 20.6 0 0 8.5 5.13 9.76 4.13 0 0-.35-16.56-4.03-20.53.4.33 7.24 6.35 6.15 21.4 0 0 12.38.38 12.5-.24 0 0-3.69-8.25-6.92-10.09.79.35 7.22 3.37 9.92 9.46 0 0 3.12-.18 6.44-.65 7.17-6.97 13.76-14.93 13.76-14.93" fill="#c5a059" transform="matrix(1.0650241 0 0 1.0650241 245.86426 638.26424)"/><path d="m0 0-9.917 7.396c-.06.03-.31.594-.31 1.104 0 .27.18.67.18.67 1.859 2.663-2.043 8.067-2.043 8.067-.044.173-.13.334-.261.454-.346.318-.735.846-.896 1.209.737 1.677.476 3.624-.676 5.048l-.634.782c-1.53 1.87-2.73 3.35-2.73 6.44.02.22.141 3.08.141 3.08.117 1.798-.055 3.35-1.386 4.965-.384.467-.634 1.329-.535 1.925l.416 2.483c.177 1.057 1.5 2.306 1.5 2.306 1.191 1.004 1.424 3.168.474 4.402l-.93 1.209c-.35.68-.53 1.48-.53 2.32 0 .759.038 1.448.196 2.047.252.954 1.153 1.59 2.138 1.556l.04-.002c1.012-.035 1.82.822 1.719 1.825-.219 2.165-.513 5.414-.513 5.414-.015.031-.011.204.005.458.117 1.9 1.364 3.196 2.846 4.552.49.685.722 1.517.651 2.356-.109 1.303-.192 3.043-.192 3.934 0 .85-.01 1.6-.02 2.29-.01.31.006 2.627-.004 2.877 0 0 6.063 1.25 6.744 5.513.051.319.7.76.98.92 2.381.725 4.013 1.865 5.179 3.57.42.614 1.116.981 1.86.959l2.909-.085c.488-.014.948.227 1.213.638l1.99 3.381c.467.695 1.309 1.437 2.599 1.437.43 0 4.755-1.417 7.776 1.25 0 0 4.438 3.563 5.764 3.83 1.722.314 2.912-.154 3.707-.803.876-.713 1.339-1.818 1.393-2.946l.115-2.414s2.038 1.031 3.846 1.947c2.003 1.014 4.567-.022 5.039-2.217.013-.06.07-.866.133-1.797.117-1.756 1.336-3.245 3.034-3.706l1.907-.519v-3.062s-2.834-2.625-.925-10.512c0 0 1.841-2.828-.221-7.221 0 0-3.313-5.017-3.625-7.33-.183-1.35-1.732-3.888-3.233-5.42-.879-.897-.678-2.38.42-2.989 1.075-.597 1.813-.935 1.813-1.653 0-1.5-2.465-2.254-2.465-2.254s-1.278-.814-1.011-4.264c.061-.793-.249-1.574-.879-2.058-1.99-1.529-5.974-5.417-4.161-11.01.385-1.188.27-2.479-.265-3.608-1.46-3.076-3.812-8.888-1.448-10.161 0 0-2.267-6.166-6.134-9.166 0 0 3.967-1.993 4.634-4.372l-4-2.878s4.75-2.834 3.333-9.584c0 0-2.5-1.166 1.583-5.25l-.583-7.11s-11.505 15.444-14.836 23.36c0 0 3.336 1.584 6.753 17.667 0 0-6.334-14.333-7.75-14.167 0 0-5 12.334-4.167 14 0 0 8 8.667 11.75 19.667 0 0-9.86-16.333-12.305-16.833 0 0-1.945 8.636-1.278 16.318 0 0 7.833 6.598 14 18.848 0 0-12.75-15.5-13.917-15.166 0 0 1.75 14.916 4.25 19.333 0 0 3-.083 13.083 12.583 0 0-10-9.75-12.166-10.333 0 0 4.833 13.917 9.25 18.167 0 0-5.834-3.75-11.167-18.917 0 0-2 6.5-1.333 16.583 0 0-3.834-9.25.25-19.25 0 0-4.167-12.75-3.75-17.833 0 0-5.917 10.25-6.167 16.667 0 0-.083-13.364 5.5-20.682 0 0-.083-14.318 1-17.068 0 0-9.254 7.234-12.946 11.72-.211.255-.604-.021-.435-.306 1.508-2.541 5.162-7.154 13.964-15.081 0 0 3.25-11.667 4.25-13.583 0 0-5.416 1.416-13.916 10 0 0 4.25-8.084 15.583-14.167 0 0 6.417-13 12.583-20.417 0 0-23.916 13.5-23.833 18.667" fill="#c5a059" transform="matrix(1.0650241 0 0 1.0650241 221.5995 674.82641)"/><path d="m0 0s-9.604 9.594-8.854 11.719c0 0-9.021 7.781-4.521 11.906 0 0 .681 2.125-1.222 4.25-1.48 1.653-.357 5.952 1.356 9.134.919 1.707 1.302 3.646.982 5.557-.489 2.913-1.067 7.096-.816 9.354.06.536.401.999.896 1.213 1.026.444 2.818 1.49 2.76 3.367-.081 2.625.294 10.875.294 10.875s4-.25 3.375 7.375c0 0 0 1.75 3.125 3.375 0 0 .078 4.449 4.617 5.089 2.054.289 3.755 1.748 4.536 3.67l1.106 2.719c1.021 2.512 4.324 3.878 6.554 2.335 1.214-.841 3.049-.992 3.977.157l.867 1.057c1.923 2.383 3.255 3.151 5.937 2.107 1.634-.771 2.829.606 3.718 2.179 0 0 2.188 2.187 4.993.055l.857-1.07c.455-.569 1.249-.727 1.888-.377 1.481.813 5.075 2.38 4.8-1.516-.072-1.02 1.112-1.734 2.127-1.601.379.05.805.183 1.273.446 0 0 4 1.188 6.75-2.812 0 0 3.875-5.188 8.375-4.688l3.714-3.668c7.849-6.394 5.368-7.86 5.85-11.598.447-3.468-.308-5.088-1.173-5.842-.695-.605-1.963-.907-2.766-.454-2.036 1.148-5.039.995-6.187-1l-5.367-.044c-1.488-.012-2.91-.608-3.962-1.66l-1.109-1.109-.261.014c-1.273.071-2.522-.369-3.47-1.222l-6.019-5.417h-1.625c-1.097 0-2.043-.77-2.265-1.845l-.11-.53c-.235-1.138-1.005-2.092-2.067-2.564l-.983-.436c-2.884-1.056-3.9-1.992-3.95-5.062-.072-2.054-1.623-3.753-3.661-4.011l-.753-.096c-4.024-.393-4.212-4.066-4.057-5.174.653-4.657-2.842-6.657-2.842-6.657-1.681-.822-1.892-4.438-1.892-4.438.324-2.51-2.28-6.953-2.28-6.953-1.863-1.613-3.384-3.957-3.39-6.421-.006-2.224.364-4.601.75-5.438l-5.937-2.062s-4.875 11-4.688 28.687c0 0 9.53 6.125 12.265 11.75 0 0-9.703-8.375-11.952-8.5 0 0 .312 7.375 2.437 12.25 0 0 10 1.75 12 5.375 0 0-6.625-2.875-11.125-2.75 0 0 5 11.25 10.5 16.5 0 0 8.5-2.25 16.375-.5 0 0-13.125 1.375-13.375 2.625 0 0 5.625 6.25 8.625 7.625 0 0 13.025-1.062 19.5.25 0 0-14 1.875-16.25 1.875 0 0 11.25 4.375 18.125 5.25 0 0-10.562.125-16.688-2.875 0 0 5.688 6.875 9.438 9 0 0-9.438-3.25-13.313-10.75 0 0-8.812-5.187-10.562-8.312 0 0-1.255 4.878 4 12.312 0 0-6.61-6.062-7.735-15.812 0 0-8.077-7.875-10.078-15.125 0 0-2.562 3.187-3.812 12.062 0 0-.938-6.625 1.938-15.687 0 0-2.813-9.125-2.188-12.75 0 0-4.25 4.562-6.125 10.562 0 0 .25-8.375 5.625-15 0 0 1.125-21.937 4.625-30.25z" fill="#c5a059" transform="matrix(1.0650241 0 0 1.0650241 285.19028 687.34045)"/><path d="m0 0-4.89 6.5c-.74.97-.94 2.39-.19 3.35.47.6-.03 1.86-1 2.54-2.6 1.81-4.61 4.05-5.9 6.93-.98 2.16-.76 4.35-3.69 4.12-1.05-.09-2.39 1.05-2.64 2.08-.87 1.36-1.66 2.06-2.62 2.45-.96.4-2.08.49-3.59.67l-.97-.19c-1.32-.2-2.47.91-2.31 2.24l.57 1.04-7.65.71c-1.76 0-4.49.93-5.09 2.59 0 0-.4.7-2.3.7-1.99 0-5.63-.77-12.16-3.91-.89.4-1.85.62-2.86.62-2.812 0-5.282-1.704-6.691-4.274-.77-1.404-2.21-2.28-3.811-2.229-.063.002-.126.003-.188.003-4.193 0-5.898 1.919-9.548-5.113-.823-1.584-2.481-2.56-4.266-2.547h-.066c-3.45 0-6.25-2.71-6.25-6.05 0-.35.06-.72.16-1.11-.43.13-.88.19-1.34.19-3.1 0-5.64-2.89-5.79-6.52-3.52-.23-4.9-1.455-4.9-3.965 0-.91-1.02-2.585-.38-3.305v-3.55c-2.06-.81-3.5-2.59-3.5-4.66 0-.535.095-1.05.274-1.535.422-1.145.502-2.404-.021-3.507-.278-.585-.607-1.14-.993-1.588 0 0-1.26-11.71 1.12-15.48 0 0-1.38-4.23.21-9.24 1.36 6.01 4.89 20.4 9.06 27.29 1.04.67 1.81 1.64 2.15 2.76.01.01.01.02.01.04.13.4.19.82.19 1.26 0 .46-.07.91-.21 1.33.01 1.35.08 3.09.28 4.9.1.98.25 1.97.43 2.94.38 1.89.94 3.67 1.78 4.97.22.35.48.67.76.94-.03-.11-.15-.57-.31-1.28-.17-.78-.38-1.86-.53-3.06-.14-1.15-.23-2.43-.18-3.67.07-1.58.35-3.12 1.03-4.32 0 0-.23 4.51 8.83 10.92 0 0 .68 5.26 2.61 7.9 0 0-.52-6.51.72-5.4 7.59 6.75 10.67 6.41 17.29 8.77 0 0 0 .01.01.01.39.74.86 1.45 1.39 2.14.57.74 1.21 1.44 1.88 2.11 2.18 2.15 4.74 3.91 6.71 5.11 1.75 1.06 3.05 1.69 3.2 1.76-1.21-.88-2.28-1.7-3.2-2.47-6.66-5.53-6.44-8.27-6.44-8.27.81.31 1.68.51 2.6.62 6.78.85 15.9-3.03 15.9-3.03 8.66 4.34 16.08 2.41 16.08 2.41-9.08-.7-15-3.33-12.25-3.91.14-.03 11.79-7.65 15.43-10.03-8.89 5.66-16.01 8.61-16.01 8.61-1.17-1.92 9.75-15.5 9.75-15.5-6.25 3-14 16.83-14 16.83-4 2.84-16.43 2.34-16.43 2.34.25-2.67 8.76-10.25 8.76-10.25-6.83 2-12.36 9.5-12.36 9.5-6.67-1.46-7.97-2.62-9.31-3.34-14.45-7.75-9.38-6.91 2.07-6.31.52.03-.78-.91-2.4-1.19-6.282-1.092-10.795-1.065-11.429-1.051-.043-.013-.08-.024-.123-.036-3.289-2.199-9.278-9.323-9.278-9.323 4.99-1.13 11.48 2.11 11.89 2.32-4.34-3.08-12.89-5.07-12.89-5.07-5.99-7.19-10.02-26.88-11.39-34.51 1-1.46 2.34-2.91 4.1-4.27 0 0 .58.67.86 2.43.41 2.62 1.64 5.02 3.32 7.07 1.81 2.23 4.44 5.99 3.63 17.69 0 0 4.43 2.56 6.14 5.92 3.46 6.79 5.85 5.96 9.71 5.63 1.93-.17 3.79.79 4.72 2.48 1.08 1.94 2.83 4.17 4.91 3.24.95-.43 2.08-.11 2.79.65 1.47 1.55 2.38 2.87 5.96.25 0 0 3.86-.21 6.61.86.8.31 1.69.09 2.28-.53 1.78-1.88 5.36-5.46 7.19-5.83l5.51.1c3.23.06 6.31-1.37 8.35-3.88l1.24-1.51c.49-.61 1.23-.94 2.01-.91l1.64.07s4-3.24 6.13-9c0 0 4.41-3.08 7.04 1.05.55.76 1 1.58 1.51 2.33.51.76 1.09 1.44 1.88 1.95 1.09.7 2.36 2.06 2.57 4.67.37 4.76-1.67 7.88-1.46 10.26.2 2.37 2.19 2.68 2.56 5.56" fill="#c5a059" transform="matrix(1.0650241 0 0 1.0650241 437.86682 721.62357)"/><path d="m0 0s4.5 9.5 9.667 11c0 0-.133 3.056 3.279 5.016 1.213.697 2.342 1.532 3.339 2.514 1.444 1.422 3.339 3.391 4.413 4.916.472.671 1.255 1.054 2.076 1.054l.877.238c.707.191 1.355.554 1.887 1.056l3.366 2.973c1.042.92 2.57 1.768 3.896 1.35.386-.122.807-.02 1.093.265l2.7 2.391c.914.81 2.199 1.061 3.341.63 2.084-.786 5.454-1.674 6.958.055.504.58 1.118 1.069 1.874 1.204.958.171 2.384.177 4.234-.495 2.835-1.031 3.86-1.57 6.427-.635 1.481.54 3.122-.018 3.999-1.328 1.084-1.62 3.793-3.266 6.324-1.954 0 0 .35-.768 1.75-3.333.904-1.656 2.64-2.684 4.526-2.664l1.057.247c2.092.125 4.334-.917 4.098-3.519l-.004-.02c-.365-1.433.417-2.909 1.808-3.411l.173-.063c1.305-.471 2.11-1.785 1.937-3.162l-.011-.087c-.27-2.153.424-4.316 1.896-5.91l1.264-1.369c.548-.594 1.052-1.233 1.454-1.934.871-1.515 1.548-1.383.37-3.851-1.183-1.416-.848-3.549.712-4.534l.644-.407c1.806-1.14 2.239-3.474.963-5.186l-.061-.083c-1.62-2.172-2.464-4.802-2.411-7.491l.177-8.986c.035-1.778-1.368-3.491-3.118-3.807-2.402-.434-4.091-2.61-3.915-5.045.141-1.96-1.555-3.554-3.503-3.291l-2.71-.118-5.013-6.893s-2.389.385-3 1.167l-6.379-5.717c-1.489-1.334-3.63-1.653-5.443-.81l-1.223.569c-2.915 1.355-6.266 1.415-9.228.166-2.814-1.186-6.065-.571-8.25 1.561l-13.334 13.01c-1.268 1.237-.329 3.384 1.44 3.294l4.662-.24 1.089 1.296.844-.828c.668-.656 1.711-.737 2.473-.192l7.683 5.494s3.833-4.23 5.5 0c0 0 0 2.041-.85 5.481-.667 2.702-.289 5.573 1.071 8.001.138.245.286.495.445.748 1.834 2.917-4 8.917-5.75 8.75-1.427-.136-6.416.084-6.416.084l-3.307 2.321c-2.726 1.914-6.35 1.946-9.108.08l-5.153-3.485s-3.455-3.49-7.694-4.703l-6.405-6.213-1.787 6.862s13.944 17.35 27.365 21.91c0 0 4.13-7.535 7.005-9.383 0 0-4.723 8.652-4.736 10.527 0 0 11.861 4.375 18.111 0 0 0-2.375-7.916-.125-16.583 0 0 .375 13.458 2.625 15.958 0 0 7.375-2.5 14.125-14 0 0-10-10.221-13-20.36 0 0 6.5 12.069 13.75 18.402 0 0 4.625-5.542 2.25-17.417 0 0-9.625-3.682-14.25-10.403 0 0 9.75 7.653 13.125 7.028 0 0-2.125-8.625-8.25-15.625 0 0 7.625 6.625 10.625 15.375 0 0 3.25-1.432 4.125-6.778 0 0 .125 6.557-2.875 9.418 0 0 2.25 10.819-1.875 18.402 0 0 4.375-.667 8.5-4.417 0 0-2.625 4.25-9.625 7.125 0 0-5.625 10.75-16.375 15.5 0 0 4.75 4.75 7.875 5.625 0 0-5.125-.845-9.25-4.61 0 0-11.223 4.11-19.486-.64 0 0 .611 3.875 5.111 7.5 0 0-4.875-1.625-8.875-8.5 0 0-8.5-2-27-21.375z" fill="#c5a059" transform="matrix(1.0650241 0 0 1.0650241 346.47358 648.91075)"/></g></svg>